<mxfile host="drawio-plugin" modified="2022-06-06T16:36:32.715Z" agent="5.0 (Windows NT 6.2; Win64; x64) AppleWebKit/537.36 (KHTML, like Gecko) Chrome/97.0.4692.45 Safari/537.36" etag="hsBVE5hDIxkLZnkRa95w" version="15.5.4" type="embed"><diagram id="23iRSUPoRavnBvh4doch" name="Page-1"><mxGraphModel dx="941" dy="735" grid="1" gridSize="10" guides="1" tooltips="1" connect="1" arrows="1" fold="1" page="1" pageScale="1" pageWidth="827" pageHeight="1169" math="0" shadow="0"><root><mxCell id="0"/><mxCell id="1" parent="0"/><mxCell id="2" value="Acteur" style="shape=umlActor;verticalLabelPosition=bottom;verticalAlign=top;html=1;" vertex="1" parent="1"><mxGeometry x="180" y="100" width="30" height="60" as="geometry"/></mxCell><mxCell id="3" value="système" style="html=1;" vertex="1" parent="1"><mxGeometry x="545" y="110" width="110" height="50" as="geometry"/></mxCell><mxCell id="4" value="" style="endArrow=none;dashed=1;html=1;rounded=0;entryX=0.5;entryY=1;entryDx=0;entryDy=0;" edge="1" parent="1" target="3"><mxGeometry width="50" height="50" relative="1" as="geometry"><mxPoint x="600" y="560" as="sourcePoint"/><mxPoint x="440" y="250" as="targetPoint"/></mxGeometry></mxCell><mxCell id="6" value="" style="endArrow=none;html=1;rounded=0;strokeWidth=6;fillColor=#1ba1e2;strokeColor=#006EAF;" edge="1" parent="1"><mxGeometry width="50" height="50" relative="1" as="geometry"><mxPoint x="200" y="560" as="sourcePoint"/><mxPoint x="200" y="180" as="targetPoint"/></mxGeometry></mxCell><mxCell id="7" value="" style="endArrow=classic;html=1;rounded=0;strokeWidth=1;" edge="1" parent="1"><mxGeometry relative="1" as="geometry"><mxPoint x="210" y="220" as="sourcePoint"/><mxPoint x="600" y="220" as="targetPoint"/></mxGeometry></mxCell><mxCell id="8" value="le client se rend sur le calendrier" style="edgeLabel;resizable=0;html=1;align=center;verticalAlign=middle;" connectable="0" vertex="1" parent="7"><mxGeometry relative="1" as="geometry"/></mxCell><mxCell id="9" value="" style="endArrow=classic;html=1;rounded=0;strokeWidth=1;" edge="1" parent="1"><mxGeometry relative="1" as="geometry"><mxPoint x="600" y="251" as="sourcePoint"/><mxPoint x="210" y="251" as="targetPoint"/></mxGeometry></mxCell><mxCell id="10" value="le système retourne la vu" style="edgeLabel;resizable=0;html=1;align=center;verticalAlign=middle;" connectable="0" vertex="1" parent="9"><mxGeometry relative="1" as="geometry"/></mxCell><mxCell id="11" value="" style="endArrow=classic;html=1;rounded=0;strokeWidth=1;" edge="1" parent="1"><mxGeometry relative="1" as="geometry"><mxPoint x="210" y="282" as="sourcePoint"/><mxPoint x="600" y="282" as="targetPoint"/></mxGeometry></mxCell><mxCell id="12" value="le client clique sur ajouter un événement" style="edgeLabel;resizable=0;html=1;align=center;verticalAlign=middle;" connectable="0" vertex="1" parent="11"><mxGeometry relative="1" as="geometry"><mxPoint y="-1" as="offset"/></mxGeometry></mxCell><mxCell id="13" value="" style="endArrow=classic;html=1;rounded=0;strokeWidth=1;" edge="1" parent="1"><mxGeometry relative="1" as="geometry"><mxPoint x="600" y="320" as="sourcePoint"/><mxPoint x="210" y="320" as="targetPoint"/></mxGeometry></mxCell><mxCell id="14" value="le système demande d'ajouter un type d'événement" style="edgeLabel;resizable=0;html=1;align=center;verticalAlign=middle;" connectable="0" vertex="1" parent="13"><mxGeometry relative="1" as="geometry"/></mxCell><mxCell id="15" value="" style="endArrow=classic;html=1;rounded=0;strokeWidth=1;" edge="1" parent="1"><mxGeometry relative="1" as="geometry"><mxPoint x="200" y="360" as="sourcePoint"/><mxPoint x="600" y="360" as="targetPoint"/></mxGeometry></mxCell><mxCell id="16" value="le client entre un type&amp;nbsp; d'événement ainsi qu'une couleur&amp;nbsp;" style="edgeLabel;resizable=0;html=1;align=center;verticalAlign=middle;" connectable="0" vertex="1" parent="15"><mxGeometry relative="1" as="geometry"/></mxCell><mxCell id="17" value="" style="endArrow=classic;html=1;rounded=0;strokeWidth=1;" edge="1" parent="1"><mxGeometry relative="1" as="geometry"><mxPoint x="600" y="400" as="sourcePoint"/><mxPoint x="200" y="400" as="targetPoint"/></mxGeometry></mxCell><mxCell id="18" value="le système demande le nom de l'événement l'heure de début et de fin" style="edgeLabel;resizable=0;html=1;align=center;verticalAlign=middle;" connectable="0" vertex="1" parent="17"><mxGeometry relative="1" as="geometry"/></mxCell><mxCell id="19" value="" style="endArrow=classic;html=1;rounded=0;strokeWidth=1;" edge="1" parent="1"><mxGeometry relative="1" as="geometry"><mxPoint x="200" y="440" as="sourcePoint"/><mxPoint x="600" y="440" as="targetPoint"/></mxGeometry></mxCell><mxCell id="20" value="le client entre le nom, séléctionne le type, heure début et fin, description" style="edgeLabel;resizable=0;html=1;align=center;verticalAlign=middle;" connectable="0" vertex="1" parent="19"><mxGeometry relative="1" as="geometry"/></mxCell><mxCell id="21" value="" style="endArrow=classic;html=1;rounded=0;strokeWidth=1;" edge="1" parent="1"><mxGeometry relative="1" as="geometry"><mxPoint x="600" y="480" as="sourcePoint"/><mxPoint x="200" y="480" as="targetPoint"/></mxGeometry></mxCell><mxCell id="22" value="le système retourne la vu du calendrier avec l'événement" style="edgeLabel;resizable=0;html=1;align=center;verticalAlign=middle;" connectable="0" vertex="1" parent="21"><mxGeometry relative="1" as="geometry"/></mxCell></root></mxGraphModel></diagram></mxfile>